<mxfile host="app.diagrams.net" modified="2024-04-26T16:36:10.429Z" agent="Mozilla/5.0 (Windows NT 10.0; Win64; x64) AppleWebKit/537.36 (KHTML, like Gecko) Chrome/124.0.0.0 Safari/537.36" etag="NMl8u0EYGMWW5ljMV5ZA" version="24.3.0" type="github">
  <diagram name="Page-1" id="W8mb6Dq7qgKnzI2KGdOR">
    <mxGraphModel dx="1434" dy="738" grid="1" gridSize="10" guides="1" tooltips="1" connect="1" arrows="1" fold="1" page="1" pageScale="1" pageWidth="850" pageHeight="1100" math="0" shadow="0">
      <root>
        <mxCell id="0" />
        <mxCell id="1" parent="0" />
        <mxCell id="bhizgNPpp-k3HYtEvxdj-27" value="" style="edgeStyle=orthogonalEdgeStyle;rounded=0;orthogonalLoop=1;jettySize=auto;html=1;" parent="1" source="bhizgNPpp-k3HYtEvxdj-2" target="bhizgNPpp-k3HYtEvxdj-3" edge="1">
          <mxGeometry relative="1" as="geometry" />
        </mxCell>
        <mxCell id="bhizgNPpp-k3HYtEvxdj-2" value="&lt;div&gt;&lt;b&gt;&lt;font style=&quot;font-size: 14px;&quot;&gt;START&lt;/font&gt;&lt;/b&gt;&lt;/div&gt;IP Scanner triggered" style="ellipse;whiteSpace=wrap;html=1;" parent="1" vertex="1">
          <mxGeometry x="54" y="240" width="120" height="80" as="geometry" />
        </mxCell>
        <mxCell id="bhizgNPpp-k3HYtEvxdj-3" value="Scan devices in the network &amp;amp; save" style="rounded=0;whiteSpace=wrap;html=1;" parent="1" vertex="1">
          <mxGeometry x="54" y="370" width="120" height="60" as="geometry" />
        </mxCell>
        <mxCell id="bhizgNPpp-k3HYtEvxdj-26" value="" style="edgeStyle=orthogonalEdgeStyle;rounded=0;orthogonalLoop=1;jettySize=auto;html=1;" parent="1" source="bhizgNPpp-k3HYtEvxdj-20" target="bhizgNPpp-k3HYtEvxdj-25" edge="1">
          <mxGeometry relative="1" as="geometry">
            <Array as="points">
              <mxPoint x="364" y="1060" />
              <mxPoint x="364" y="1060" />
            </Array>
          </mxGeometry>
        </mxCell>
        <mxCell id="bhizgNPpp-k3HYtEvxdj-20" value="" style="rounded=0;whiteSpace=wrap;html=1;" parent="1" vertex="1">
          <mxGeometry x="24" y="480" width="270" height="610" as="geometry" />
        </mxCell>
        <mxCell id="bhizgNPpp-k3HYtEvxdj-7" value="" style="edgeStyle=orthogonalEdgeStyle;rounded=0;orthogonalLoop=1;jettySize=auto;html=1;" parent="1" source="bhizgNPpp-k3HYtEvxdj-5" target="bhizgNPpp-k3HYtEvxdj-6" edge="1">
          <mxGeometry relative="1" as="geometry" />
        </mxCell>
        <mxCell id="bhizgNPpp-k3HYtEvxdj-9" value="" style="edgeStyle=orthogonalEdgeStyle;rounded=0;orthogonalLoop=1;jettySize=auto;html=1;" parent="1" source="bhizgNPpp-k3HYtEvxdj-5" target="bhizgNPpp-k3HYtEvxdj-8" edge="1">
          <mxGeometry relative="1" as="geometry" />
        </mxCell>
        <mxCell id="bhizgNPpp-k3HYtEvxdj-5" value="is port Watts &amp;gt; 0 &lt;br&gt;and status &#39;on&#39; ?" style="rhombus;whiteSpace=wrap;html=1;" parent="1" vertex="1">
          <mxGeometry x="54" y="490" width="120" height="100" as="geometry" />
        </mxCell>
        <mxCell id="bhizgNPpp-k3HYtEvxdj-6" value="skip port" style="whiteSpace=wrap;html=1;" parent="1" vertex="1">
          <mxGeometry x="214" y="510" width="60" height="60" as="geometry" />
        </mxCell>
        <mxCell id="bhizgNPpp-k3HYtEvxdj-11" value="" style="edgeStyle=orthogonalEdgeStyle;rounded=0;orthogonalLoop=1;jettySize=auto;html=1;" parent="1" source="bhizgNPpp-k3HYtEvxdj-8" target="bhizgNPpp-k3HYtEvxdj-10" edge="1">
          <mxGeometry relative="1" as="geometry" />
        </mxCell>
        <mxCell id="bhizgNPpp-k3HYtEvxdj-8" value="Scan devices in the network" style="whiteSpace=wrap;html=1;" parent="1" vertex="1">
          <mxGeometry x="59" y="620" width="110" height="50" as="geometry" />
        </mxCell>
        <mxCell id="bhizgNPpp-k3HYtEvxdj-13" value="" style="edgeStyle=orthogonalEdgeStyle;rounded=0;orthogonalLoop=1;jettySize=auto;html=1;" parent="1" source="bhizgNPpp-k3HYtEvxdj-10" target="bhizgNPpp-k3HYtEvxdj-12" edge="1">
          <mxGeometry relative="1" as="geometry" />
        </mxCell>
        <mxCell id="bhizgNPpp-k3HYtEvxdj-10" value="turn off the port" style="whiteSpace=wrap;html=1;" parent="1" vertex="1">
          <mxGeometry x="59" y="695" width="110" height="50" as="geometry" />
        </mxCell>
        <mxCell id="bhizgNPpp-k3HYtEvxdj-15" value="" style="edgeStyle=orthogonalEdgeStyle;rounded=0;orthogonalLoop=1;jettySize=auto;html=1;" parent="1" source="bhizgNPpp-k3HYtEvxdj-12" target="bhizgNPpp-k3HYtEvxdj-14" edge="1">
          <mxGeometry relative="1" as="geometry" />
        </mxCell>
        <mxCell id="bhizgNPpp-k3HYtEvxdj-12" value="Scan devices in the network" style="whiteSpace=wrap;html=1;" parent="1" vertex="1">
          <mxGeometry x="59" y="770" width="110" height="50" as="geometry" />
        </mxCell>
        <mxCell id="bhizgNPpp-k3HYtEvxdj-17" value="" style="edgeStyle=orthogonalEdgeStyle;rounded=0;orthogonalLoop=1;jettySize=auto;html=1;" parent="1" source="bhizgNPpp-k3HYtEvxdj-14" target="bhizgNPpp-k3HYtEvxdj-16" edge="1">
          <mxGeometry relative="1" as="geometry" />
        </mxCell>
        <mxCell id="bhizgNPpp-k3HYtEvxdj-14" value="&lt;div&gt;get difference of device list from last 2 scan&lt;/div&gt;" style="whiteSpace=wrap;html=1;" parent="1" vertex="1">
          <mxGeometry x="59" y="850" width="110" height="50" as="geometry" />
        </mxCell>
        <mxCell id="bhizgNPpp-k3HYtEvxdj-19" value="" style="edgeStyle=orthogonalEdgeStyle;rounded=0;orthogonalLoop=1;jettySize=auto;html=1;" parent="1" source="bhizgNPpp-k3HYtEvxdj-16" target="bhizgNPpp-k3HYtEvxdj-18" edge="1">
          <mxGeometry relative="1" as="geometry" />
        </mxCell>
        <mxCell id="bhizgNPpp-k3HYtEvxdj-16" value="&lt;div&gt;tie the devices in the list with the port&lt;/div&gt;" style="whiteSpace=wrap;html=1;" parent="1" vertex="1">
          <mxGeometry x="59" y="940" width="110" height="50" as="geometry" />
        </mxCell>
        <mxCell id="bhizgNPpp-k3HYtEvxdj-18" value="&lt;div&gt;turn on the port&lt;/div&gt;" style="whiteSpace=wrap;html=1;" parent="1" vertex="1">
          <mxGeometry x="59" y="1030" width="110" height="50" as="geometry" />
        </mxCell>
        <mxCell id="bhizgNPpp-k3HYtEvxdj-22" value="Iterate all the ports" style="rounded=0;whiteSpace=wrap;html=1;" parent="1" vertex="1">
          <mxGeometry x="234" y="660" width="120" height="60" as="geometry" />
        </mxCell>
        <mxCell id="bhizgNPpp-k3HYtEvxdj-23" value="&lt;b&gt;&lt;font style=&quot;font-size: 14px;&quot;&gt;False&lt;/font&gt;&lt;/b&gt;" style="text;html=1;align=center;verticalAlign=middle;whiteSpace=wrap;rounded=0;strokeWidth=2;" parent="1" vertex="1">
          <mxGeometry x="164" y="510" width="60" height="30" as="geometry" />
        </mxCell>
        <mxCell id="bhizgNPpp-k3HYtEvxdj-24" value="&lt;b style=&quot;font-size: 14px;&quot;&gt;True&lt;/b&gt;" style="text;html=1;align=center;verticalAlign=middle;whiteSpace=wrap;rounded=0;fontSize=14;" parent="1" vertex="1">
          <mxGeometry x="64" y="580" width="60" height="30" as="geometry" />
        </mxCell>
        <mxCell id="bhizgNPpp-k3HYtEvxdj-33" value="" style="edgeStyle=orthogonalEdgeStyle;rounded=0;orthogonalLoop=1;jettySize=auto;html=1;entryX=0.5;entryY=1;entryDx=0;entryDy=0;" parent="1" source="bhizgNPpp-k3HYtEvxdj-25" target="bhizgNPpp-k3HYtEvxdj-34" edge="1">
          <mxGeometry relative="1" as="geometry">
            <mxPoint x="536.5" y="990" as="targetPoint" />
          </mxGeometry>
        </mxCell>
        <mxCell id="bhizgNPpp-k3HYtEvxdj-25" value="iterate all saved device &amp;amp; filter out devices tied with no port" style="whiteSpace=wrap;html=1;rounded=0;" parent="1" vertex="1">
          <mxGeometry x="479" y="1030" width="120" height="60" as="geometry" />
        </mxCell>
        <mxCell id="bhizgNPpp-k3HYtEvxdj-29" style="edgeStyle=orthogonalEdgeStyle;rounded=0;orthogonalLoop=1;jettySize=auto;html=1;entryX=0.333;entryY=-0.003;entryDx=0;entryDy=0;entryPerimeter=0;" parent="1" source="bhizgNPpp-k3HYtEvxdj-3" target="bhizgNPpp-k3HYtEvxdj-20" edge="1">
          <mxGeometry relative="1" as="geometry" />
        </mxCell>
        <mxCell id="bhizgNPpp-k3HYtEvxdj-30" value="&lt;h1 style=&quot;margin-top: 0px;&quot;&gt;&lt;span style=&quot;background-color: initial;&quot;&gt;Scan &amp;amp; Associate Port-Device&lt;/span&gt;&lt;/h1&gt;&lt;div&gt;&lt;font face=&quot;Tahoma&quot;&gt;Left Part contains the logic to scan and tie the devices to ports&lt;/font&gt;&lt;/div&gt;" style="text;html=1;whiteSpace=wrap;overflow=hidden;rounded=0;" parent="1" vertex="1">
          <mxGeometry x="44" y="30" width="216" height="120" as="geometry" />
        </mxCell>
        <mxCell id="bhizgNPpp-k3HYtEvxdj-31" value="&lt;h1 style=&quot;margin-top: 0px;&quot;&gt;&lt;span style=&quot;background-color: initial;&quot;&gt;Filter &amp;amp; Correct Port-Device Association&lt;/span&gt;&lt;/h1&gt;&lt;div&gt;&lt;font face=&quot;Tahoma&quot;&gt;Right Part contains the logic for filtering and correcting:&lt;/font&gt;&lt;/div&gt;&lt;div&gt;&lt;font face=&quot;Tahoma&quot;&gt;&lt;br&gt;&lt;/font&gt;&lt;/div&gt;&lt;div&gt;&lt;font face=&quot;Tahoma&quot;&gt;1. The devices tied with no port&lt;/font&gt;&lt;/div&gt;&lt;div&gt;&lt;font face=&quot;Tahoma&quot;&gt;2. The devices tied with more than 1 port&lt;/font&gt;&lt;/div&gt;&lt;div&gt;&lt;font face=&quot;Tahoma&quot;&gt;3. The ports are tied with more than 1 device&amp;nbsp;&lt;/font&gt;&lt;/div&gt;" style="text;html=1;whiteSpace=wrap;overflow=hidden;rounded=0;" parent="1" vertex="1">
          <mxGeometry x="487.75" y="30" width="272.25" height="190" as="geometry" />
        </mxCell>
        <mxCell id="bhizgNPpp-k3HYtEvxdj-42" value="" style="edgeStyle=orthogonalEdgeStyle;rounded=0;orthogonalLoop=1;jettySize=auto;html=1;" parent="1" source="bhizgNPpp-k3HYtEvxdj-34" target="bhizgNPpp-k3HYtEvxdj-41" edge="1">
          <mxGeometry relative="1" as="geometry">
            <Array as="points">
              <mxPoint x="660" y="890" />
              <mxPoint x="660" y="890" />
            </Array>
          </mxGeometry>
        </mxCell>
        <mxCell id="bhizgNPpp-k3HYtEvxdj-44" value="" style="edgeStyle=orthogonalEdgeStyle;rounded=0;orthogonalLoop=1;jettySize=auto;html=1;" parent="1" source="bhizgNPpp-k3HYtEvxdj-34" target="bhizgNPpp-k3HYtEvxdj-43" edge="1">
          <mxGeometry relative="1" as="geometry" />
        </mxCell>
        <mxCell id="bhizgNPpp-k3HYtEvxdj-34" value="is device tied with more than 1 port ?" style="rhombus;whiteSpace=wrap;html=1;rounded=0;" parent="1" vertex="1">
          <mxGeometry x="476.5" y="830" width="125" height="110" as="geometry" />
        </mxCell>
        <mxCell id="bhizgNPpp-k3HYtEvxdj-36" value="&lt;b&gt;&lt;font style=&quot;font-size: 14px;&quot;&gt;False&lt;/font&gt;&lt;/b&gt;" style="text;html=1;align=center;verticalAlign=middle;whiteSpace=wrap;rounded=0;strokeWidth=2;" parent="1" vertex="1">
          <mxGeometry x="476.5" y="790" width="60" height="30" as="geometry" />
        </mxCell>
        <mxCell id="bhizgNPpp-k3HYtEvxdj-37" value="&lt;b style=&quot;font-size: 14px;&quot;&gt;True&lt;/b&gt;" style="text;html=1;align=center;verticalAlign=middle;whiteSpace=wrap;rounded=0;fontSize=14;" parent="1" vertex="1">
          <mxGeometry x="590.25" y="850" width="60" height="30" as="geometry" />
        </mxCell>
        <mxCell id="bhizgNPpp-k3HYtEvxdj-46" style="edgeStyle=orthogonalEdgeStyle;rounded=0;orthogonalLoop=1;jettySize=auto;html=1;exitX=0.5;exitY=0;exitDx=0;exitDy=0;" parent="1" source="bhizgNPpp-k3HYtEvxdj-41" edge="1">
          <mxGeometry relative="1" as="geometry">
            <mxPoint x="540" y="800" as="targetPoint" />
            <Array as="points">
              <mxPoint x="744" y="800" />
            </Array>
          </mxGeometry>
        </mxCell>
        <mxCell id="bhizgNPpp-k3HYtEvxdj-41" value="keep the port&amp;nbsp;association with only one device&amp;nbsp;&lt;div&gt;- filter the rest associations&amp;nbsp;from the device&lt;/div&gt;" style="whiteSpace=wrap;html=1;rounded=0;" parent="1" vertex="1">
          <mxGeometry x="659" y="835" width="170" height="70" as="geometry" />
        </mxCell>
        <mxCell id="bhizgNPpp-k3HYtEvxdj-49" value="" style="edgeStyle=orthogonalEdgeStyle;rounded=0;orthogonalLoop=1;jettySize=auto;html=1;" parent="1" source="bhizgNPpp-k3HYtEvxdj-43" target="bhizgNPpp-k3HYtEvxdj-48" edge="1">
          <mxGeometry relative="1" as="geometry" />
        </mxCell>
        <mxCell id="bhizgNPpp-k3HYtEvxdj-60" value="" style="edgeStyle=orthogonalEdgeStyle;rounded=0;orthogonalLoop=1;jettySize=auto;html=1;" parent="1" source="bhizgNPpp-k3HYtEvxdj-43" target="bhizgNPpp-k3HYtEvxdj-59" edge="1">
          <mxGeometry relative="1" as="geometry" />
        </mxCell>
        <mxCell id="bhizgNPpp-k3HYtEvxdj-43" value="is port tied with more than 1 device ?" style="rhombus;whiteSpace=wrap;html=1;rounded=0;" parent="1" vertex="1">
          <mxGeometry x="476.5" y="650" width="125" height="110" as="geometry" />
        </mxCell>
        <mxCell id="bhizgNPpp-k3HYtEvxdj-51" value="" style="edgeStyle=orthogonalEdgeStyle;rounded=0;orthogonalLoop=1;jettySize=auto;html=1;" parent="1" source="bhizgNPpp-k3HYtEvxdj-48" target="bhizgNPpp-k3HYtEvxdj-50" edge="1">
          <mxGeometry relative="1" as="geometry" />
        </mxCell>
        <mxCell id="bhizgNPpp-k3HYtEvxdj-48" value="save these devices in &#39;candidates&#39;." style="whiteSpace=wrap;html=1;rounded=0;" parent="1" vertex="1">
          <mxGeometry x="670.25" y="676.25" width="120" height="57.5" as="geometry" />
        </mxCell>
        <mxCell id="bhizgNPpp-k3HYtEvxdj-53" value="" style="edgeStyle=orthogonalEdgeStyle;rounded=0;orthogonalLoop=1;jettySize=auto;html=1;" parent="1" source="bhizgNPpp-k3HYtEvxdj-50" target="bhizgNPpp-k3HYtEvxdj-52" edge="1">
          <mxGeometry relative="1" as="geometry" />
        </mxCell>
        <mxCell id="bhizgNPpp-k3HYtEvxdj-50" value="Scan all devices in the network &amp;amp; filter out devices in &#39;candidates&#39; don&#39;t show up in the scan" style="whiteSpace=wrap;html=1;rounded=0;" parent="1" vertex="1">
          <mxGeometry x="655.25" y="547.5" width="150" height="72.5" as="geometry" />
        </mxCell>
        <mxCell id="bhizgNPpp-k3HYtEvxdj-55" value="" style="edgeStyle=orthogonalEdgeStyle;rounded=0;orthogonalLoop=1;jettySize=auto;html=1;" parent="1" source="bhizgNPpp-k3HYtEvxdj-52" target="bhizgNPpp-k3HYtEvxdj-54" edge="1">
          <mxGeometry relative="1" as="geometry" />
        </mxCell>
        <mxCell id="bhizgNPpp-k3HYtEvxdj-52" value="turn of all ports &amp;amp; scan -&amp;gt; delete &#39;candidates&#39; show up in the the scan" style="whiteSpace=wrap;html=1;rounded=0;" parent="1" vertex="1">
          <mxGeometry x="650.25" y="440" width="160" height="62.5" as="geometry" />
        </mxCell>
        <mxCell id="bhizgNPpp-k3HYtEvxdj-63" style="edgeStyle=orthogonalEdgeStyle;rounded=0;orthogonalLoop=1;jettySize=auto;html=1;" parent="1" source="bhizgNPpp-k3HYtEvxdj-54" edge="1">
          <mxGeometry relative="1" as="geometry">
            <mxPoint x="540" y="361.25" as="targetPoint" />
          </mxGeometry>
        </mxCell>
        <mxCell id="bhizgNPpp-k3HYtEvxdj-54" value="Turn on all ports &amp;amp; Scan all devices in the network &amp;amp; filter out devices in &#39;candidates&#39; don&#39;t show up in the scan" style="whiteSpace=wrap;html=1;rounded=0;" parent="1" vertex="1">
          <mxGeometry x="650.25" y="330" width="160" height="62.5" as="geometry" />
        </mxCell>
        <mxCell id="bhizgNPpp-k3HYtEvxdj-57" value="&lt;b style=&quot;font-size: 14px;&quot;&gt;True&lt;/b&gt;" style="text;html=1;align=center;verticalAlign=middle;whiteSpace=wrap;rounded=0;fontSize=14;" parent="1" vertex="1">
          <mxGeometry x="601.5" y="676.25" width="60" height="30" as="geometry" />
        </mxCell>
        <mxCell id="bhizgNPpp-k3HYtEvxdj-58" value="&lt;b&gt;&lt;font style=&quot;font-size: 14px;&quot;&gt;False&lt;/font&gt;&lt;/b&gt;" style="text;html=1;align=center;verticalAlign=middle;whiteSpace=wrap;rounded=0;strokeWidth=2;" parent="1" vertex="1">
          <mxGeometry x="487.75" y="610" width="60" height="30" as="geometry" />
        </mxCell>
        <mxCell id="bhizgNPpp-k3HYtEvxdj-59" value="&lt;font style=&quot;font-size: 14px;&quot;&gt;&lt;b&gt;END&lt;/b&gt;&lt;/font&gt;&lt;div&gt;&lt;font style=&quot;font-size: 12px;&quot;&gt;End Scanning&lt;/font&gt;&lt;/div&gt;" style="ellipse;whiteSpace=wrap;html=1;rounded=0;" parent="1" vertex="1">
          <mxGeometry x="482.75" y="250" width="112.5" height="60" as="geometry" />
        </mxCell>
      </root>
    </mxGraphModel>
  </diagram>
</mxfile>
